<svg xmlns="http://www.w3.org/2000/svg" xmlns:xlink="http://www.w3.org/1999/xlink" viewBox="10 42 350 295" preserveAspectRatio="xMidYMid meet" version="1.0"><defs><g/><clipPath id="70f9ff6146"><path d="M 126 101 L 268 101 L 268 220.066406 L 126 220.066406 Z M 126 101 " clip-rule="nonzero"/></clipPath><clipPath id="823ac286a8"><path d="M 108.730469 97 L 245 97 L 245 172 L 108.730469 172 Z M 108.730469 97 " clip-rule="nonzero"/></clipPath><clipPath id="3ad761458c"><path d="M 251 124 L 281.746094 124 L 281.746094 140 L 251 140 Z M 251 124 " clip-rule="nonzero"/></clipPath><clipPath id="20d5f290cd"><path d="M 166 47.027344 L 246 47.027344 L 246 127 L 166 127 Z M 166 47.027344 " clip-rule="nonzero"/></clipPath><clipPath id="ab13bc49fa"><path d="M 111 211 L 262 211 L 262 220.066406 L 111 220.066406 Z M 111 211 " clip-rule="nonzero"/></clipPath></defs><g fill="#685944" fill-opacity="1"><g transform="translate(95.01814, 281.771383)"><g><path d="M 4.484375 0 L 4.484375 -37.546875 L 32.96875 -37.546875 L 32.96875 -33.390625 L 9.5625 -33.390625 L 9.5625 -21.34375 L 31.359375 -21.34375 L 31.359375 -17.25 L 9.5625 -17.25 L 9.5625 -4.15625 L 34.0625 -4.15625 L 34.0625 0 Z M 4.484375 0 "/></g></g><g transform="translate(131.418572, 281.771383)"><g><path d="M 31.015625 0 L 21.265625 -15.59375 L 9.5625 -15.59375 L 9.5625 0 L 4.484375 0 L 4.484375 -37.546875 L 22.140625 -37.546875 C 26.367188 -37.546875 29.632812 -36.597656 31.9375 -34.703125 C 34.238281 -32.816406 35.390625 -30.1875 35.390625 -26.8125 C 35.390625 -24.019531 34.578125 -21.671875 32.953125 -19.765625 C 31.328125 -17.867188 29.082031 -16.671875 26.21875 -16.171875 L 36.890625 0 Z M 30.28125 -26.75 C 30.28125 -28.9375 29.535156 -30.601562 28.046875 -31.75 C 26.566406 -32.894531 24.429688 -33.46875 21.640625 -33.46875 L 9.5625 -33.46875 L 9.5625 -19.609375 L 21.859375 -19.609375 C 24.535156 -19.609375 26.609375 -20.234375 28.078125 -21.484375 C 29.546875 -22.742188 30.28125 -24.5 30.28125 -26.75 Z M 30.28125 -26.75 "/></g></g><g transform="translate(170.830168, 281.771383)"><g><path d="M 28.828125 0 L 8.734375 -31.984375 L 8.875 -29.390625 L 9 -24.9375 L 9 0 L 4.484375 0 L 4.484375 -37.546875 L 10.390625 -37.546875 L 30.703125 -5.359375 C 30.484375 -8.835938 30.375 -11.359375 30.375 -12.921875 L 30.375 -37.546875 L 34.96875 -37.546875 L 34.96875 0 Z M 28.828125 0 "/></g></g><g transform="translate(210.241764, 281.771383)"><g><path d="M 33.890625 -10.359375 C 33.890625 -6.898438 32.535156 -4.21875 29.828125 -2.3125 C 27.117188 -0.414062 23.304688 0.53125 18.390625 0.53125 C 9.234375 0.53125 3.929688 -2.644531 2.484375 -9 L 7.40625 -10 C 7.976562 -7.738281 9.1875 -6.078125 11.03125 -5.015625 C 12.875 -3.960938 15.390625 -3.4375 18.578125 -3.4375 C 21.859375 -3.4375 24.390625 -4 26.171875 -5.125 C 27.960938 -6.257812 28.859375 -7.914062 28.859375 -10.09375 C 28.859375 -11.320312 28.578125 -12.316406 28.015625 -13.078125 C 27.460938 -13.847656 26.675781 -14.476562 25.65625 -14.96875 C 24.644531 -15.46875 23.4375 -15.882812 22.03125 -16.21875 C 20.632812 -16.5625 19.082031 -16.929688 17.375 -17.328125 C 14.40625 -17.984375 12.148438 -18.640625 10.609375 -19.296875 C 9.078125 -19.953125 7.867188 -20.679688 6.984375 -21.484375 C 6.097656 -22.296875 5.414062 -23.242188 4.9375 -24.328125 C 4.46875 -25.410156 4.234375 -26.65625 4.234375 -28.0625 C 4.234375 -31.28125 5.460938 -33.757812 7.921875 -35.5 C 10.390625 -37.238281 13.914062 -38.109375 18.5 -38.109375 C 22.757812 -38.109375 26.015625 -37.453125 28.265625 -36.140625 C 30.523438 -34.835938 32.109375 -32.613281 33.015625 -29.46875 L 28.015625 -28.59375 C 27.460938 -30.582031 26.410156 -32.023438 24.859375 -32.921875 C 23.316406 -33.816406 21.175781 -34.265625 18.4375 -34.265625 C 15.4375 -34.265625 13.144531 -33.765625 11.5625 -32.765625 C 9.976562 -31.773438 9.1875 -30.296875 9.1875 -28.328125 C 9.1875 -27.171875 9.492188 -26.210938 10.109375 -25.453125 C 10.722656 -24.703125 11.609375 -24.066406 12.765625 -23.546875 C 13.921875 -23.023438 16.222656 -22.378906 19.671875 -21.609375 C 20.828125 -21.347656 21.976562 -21.078125 23.125 -20.796875 C 24.269531 -20.523438 25.363281 -20.195312 26.40625 -19.8125 C 27.457031 -19.425781 28.441406 -18.972656 29.359375 -18.453125 C 30.273438 -17.941406 31.066406 -17.3125 31.734375 -16.5625 C 32.410156 -15.820312 32.9375 -14.945312 33.3125 -13.9375 C 33.695312 -12.925781 33.890625 -11.734375 33.890625 -10.359375 Z M 33.890625 -10.359375 "/></g></g><g transform="translate(246.642196, 281.771383)"><g><path d="M 19.1875 -33.390625 L 19.1875 0 L 14.125 0 L 14.125 -33.390625 L 1.21875 -33.390625 L 1.21875 -37.546875 L 32.09375 -37.546875 L 32.09375 -33.390625 Z M 19.1875 -33.390625 "/></g></g></g><g transform="translate(186.5, 317.6) scale(1.3) translate(-186.5, -317.6)"><g fill="#685944" fill-opacity="1"><g transform="translate(55.143478, 323.43074)"><g><path d="M 11.65625 -11.671875 L 11.65625 0 L 10.4375 0 L 10.4375 -5.390625 L 3.140625 -5.390625 L 3.140625 0 L 1.90625 0 L 1.90625 -11.671875 L 3.140625 -11.671875 L 3.140625 -6.46875 L 10.4375 -6.46875 L 10.4375 -11.671875 Z M 11.65625 -11.671875 "/></g></g></g><g fill="#685944" fill-opacity="1"><g transform="translate(82.037886, 323.43074)"><g><path d="M 9.21875 -3.125 L 2.71875 -3.125 L 1.3125 0 L 0.03125 0 L 5.375 -11.671875 L 6.578125 -11.671875 L 11.921875 0 L 10.625 0 Z M 8.765625 -4.125 L 5.96875 -10.390625 L 3.171875 -4.125 Z M 8.765625 -4.125 "/></g></g></g><g fill="#685944" fill-opacity="1"><g transform="translate(107.332349, 323.43074)"><g><path d="M 6.609375 0.09375 C 5.085938 0.09375 3.90625 -0.335938 3.0625 -1.203125 C 2.21875 -2.066406 1.796875 -3.328125 1.796875 -4.984375 L 1.796875 -11.671875 L 3.03125 -11.671875 L 3.03125 -5.03125 C 3.03125 -3.675781 3.335938 -2.664062 3.953125 -2 C 4.566406 -1.332031 5.453125 -1 6.609375 -1 C 7.773438 -1 8.660156 -1.332031 9.265625 -2 C 9.878906 -2.664062 10.1875 -3.675781 10.1875 -5.03125 L 10.1875 -11.671875 L 11.390625 -11.671875 L 11.390625 -4.984375 C 11.390625 -3.328125 10.96875 -2.066406 10.125 -1.203125 C 9.289062 -0.335938 8.117188 0.09375 6.609375 0.09375 Z M 6.609375 0.09375 "/></g></g></g><g fill="#685944" fill-opacity="1"><g transform="translate(133.876761, 323.43074)"><g><path d="M 5.125 0.09375 C 4.25 0.09375 3.414062 -0.0390625 2.625 -0.3125 C 1.832031 -0.59375 1.21875 -0.960938 0.78125 -1.421875 L 1.265625 -2.375 C 1.691406 -1.945312 2.253906 -1.601562 2.953125 -1.34375 C 3.648438 -1.082031 4.375 -0.953125 5.125 -0.953125 C 6.164062 -0.953125 6.945312 -1.140625 7.46875 -1.515625 C 7.988281 -1.898438 8.25 -2.398438 8.25 -3.015625 C 8.25 -3.484375 8.109375 -3.851562 7.828125 -4.125 C 7.546875 -4.40625 7.195312 -4.617188 6.78125 -4.765625 C 6.375 -4.921875 5.800781 -5.085938 5.0625 -5.265625 C 4.1875 -5.492188 3.488281 -5.707031 2.96875 -5.90625 C 2.445312 -6.113281 2 -6.425781 1.625 -6.84375 C 1.25 -7.269531 1.0625 -7.84375 1.0625 -8.5625 C 1.0625 -9.15625 1.21875 -9.691406 1.53125 -10.171875 C 1.84375 -10.660156 2.320312 -11.046875 2.96875 -11.328125 C 3.613281 -11.617188 4.414062 -11.765625 5.375 -11.765625 C 6.039062 -11.765625 6.691406 -11.671875 7.328125 -11.484375 C 7.960938 -11.304688 8.515625 -11.054688 8.984375 -10.734375 L 8.5625 -9.75 C 8.070312 -10.070312 7.550781 -10.3125 7 -10.46875 C 6.445312 -10.632812 5.90625 -10.71875 5.375 -10.71875 C 4.34375 -10.71875 3.566406 -10.519531 3.046875 -10.125 C 2.535156 -9.726562 2.28125 -9.222656 2.28125 -8.609375 C 2.28125 -8.140625 2.421875 -7.757812 2.703125 -7.46875 C 2.992188 -7.1875 3.351562 -6.972656 3.78125 -6.828125 C 4.207031 -6.679688 4.78125 -6.515625 5.5 -6.328125 C 6.351562 -6.117188 7.046875 -5.910156 7.578125 -5.703125 C 8.109375 -5.503906 8.554688 -5.195312 8.921875 -4.78125 C 9.285156 -4.363281 9.46875 -3.796875 9.46875 -3.078125 C 9.46875 -2.492188 9.304688 -1.957031 8.984375 -1.46875 C 8.671875 -0.988281 8.1875 -0.609375 7.53125 -0.328125 C 6.875 -0.046875 6.070312 0.09375 5.125 0.09375 Z M 5.125 0.09375 "/></g></g></g><g fill="#685944" fill-opacity="1"><g transform="translate(157.471288, 323.43074)"><g><path d="M 10.25 0.1875 L 8.640625 -1.484375 C 7.648438 -0.429688 6.347656 0.09375 4.734375 0.09375 C 3.972656 0.09375 3.296875 -0.03125 2.703125 -0.28125 C 2.109375 -0.53125 1.644531 -0.878906 1.3125 -1.328125 C 0.976562 -1.773438 0.8125 -2.289062 0.8125 -2.875 C 0.8125 -3.570312 1.035156 -4.195312 1.484375 -4.75 C 1.929688 -5.300781 2.6875 -5.882812 3.75 -6.5 C 3.195312 -7.082031 2.8125 -7.578125 2.59375 -7.984375 C 2.382812 -8.390625 2.28125 -8.816406 2.28125 -9.265625 C 2.28125 -10.015625 2.546875 -10.613281 3.078125 -11.0625 C 3.617188 -11.519531 4.335938 -11.75 5.234375 -11.75 C 6.066406 -11.75 6.726562 -11.539062 7.21875 -11.125 C 7.707031 -10.71875 7.953125 -10.15625 7.953125 -9.4375 C 7.953125 -8.851562 7.753906 -8.332031 7.359375 -7.875 C 6.972656 -7.414062 6.304688 -6.910156 5.359375 -6.359375 L 8.546875 -3.046875 C 8.910156 -3.679688 9.175781 -4.429688 9.34375 -5.296875 L 10.296875 -5 C 10.085938 -3.957031 9.742188 -3.0625 9.265625 -2.3125 L 10.9375 -0.59375 Z M 5.234375 -10.875 C 4.660156 -10.875 4.207031 -10.726562 3.875 -10.4375 C 3.550781 -10.144531 3.390625 -9.757812 3.390625 -9.28125 C 3.390625 -8.9375 3.476562 -8.609375 3.65625 -8.296875 C 3.832031 -7.984375 4.179688 -7.5625 4.703125 -7.03125 C 5.546875 -7.519531 6.128906 -7.9375 6.453125 -8.28125 C 6.773438 -8.625 6.9375 -9.003906 6.9375 -9.421875 C 6.9375 -9.867188 6.785156 -10.222656 6.484375 -10.484375 C 6.179688 -10.742188 5.765625 -10.875 5.234375 -10.875 Z M 4.796875 -0.890625 C 6.085938 -0.890625 7.132812 -1.328125 7.9375 -2.203125 L 4.421875 -5.8125 C 3.492188 -5.289062 2.851562 -4.816406 2.5 -4.390625 C 2.15625 -3.972656 1.984375 -3.503906 1.984375 -2.984375 C 1.984375 -2.347656 2.238281 -1.835938 2.75 -1.453125 C 3.269531 -1.078125 3.953125 -0.890625 4.796875 -0.890625 Z M 4.796875 -0.890625 "/></g></g></g><g fill="#685944" fill-opacity="1"><g transform="translate(181.965775, 323.43074)"><g><path d="M 10.125 -5.828125 L 11.296875 -5.828125 L 11.296875 -1.390625 C 10.753906 -0.910156 10.109375 -0.539062 9.359375 -0.28125 C 8.617188 -0.03125 7.835938 0.09375 7.015625 0.09375 C 5.847656 0.09375 4.796875 -0.160156 3.859375 -0.671875 C 2.929688 -1.179688 2.195312 -1.890625 1.65625 -2.796875 C 1.125 -3.703125 0.859375 -4.710938 0.859375 -5.828125 C 0.859375 -6.953125 1.125 -7.96875 1.65625 -8.875 C 2.195312 -9.78125 2.929688 -10.488281 3.859375 -11 C 4.796875 -11.507812 5.851562 -11.765625 7.03125 -11.765625 C 7.925781 -11.765625 8.742188 -11.625 9.484375 -11.34375 C 10.234375 -11.0625 10.863281 -10.644531 11.375 -10.09375 L 10.609375 -9.296875 C 9.679688 -10.210938 8.503906 -10.671875 7.078125 -10.671875 C 6.140625 -10.671875 5.289062 -10.460938 4.53125 -10.046875 C 3.769531 -9.628906 3.171875 -9.050781 2.734375 -8.3125 C 2.296875 -7.570312 2.078125 -6.742188 2.078125 -5.828125 C 2.078125 -4.921875 2.296875 -4.097656 2.734375 -3.359375 C 3.171875 -2.628906 3.765625 -2.050781 4.515625 -1.625 C 5.273438 -1.207031 6.125 -1 7.0625 -1 C 8.269531 -1 9.289062 -1.300781 10.125 -1.90625 Z M 10.125 -5.828125 "/></g></g></g><g fill="#685944" fill-opacity="1"><g transform="translate(208.193538, 323.43074)"><g><path d="M 9.21875 -3.125 L 2.71875 -3.125 L 1.3125 0 L 0.03125 0 L 5.375 -11.671875 L 6.578125 -11.671875 L 11.921875 0 L 10.625 0 Z M 8.765625 -4.125 L 5.96875 -10.390625 L 3.171875 -4.125 Z M 8.765625 -4.125 "/></g></g></g><g fill="#685944" fill-opacity="1"><g transform="translate(233.488005, 323.43074)"><g><path d="M 9.875 0 L 7.203125 -3.75 C 6.898438 -3.71875 6.585938 -3.703125 6.265625 -3.703125 L 3.140625 -3.703125 L 3.140625 0 L 1.90625 0 L 1.90625 -11.671875 L 6.265625 -11.671875 C 7.753906 -11.671875 8.921875 -11.3125 9.765625 -10.59375 C 10.609375 -9.882812 11.03125 -8.910156 11.03125 -7.671875 C 11.03125 -6.753906 10.800781 -5.984375 10.34375 -5.359375 C 9.882812 -4.734375 9.226562 -4.28125 8.375 -4 L 11.21875 0 Z M 6.234375 -4.75 C 7.390625 -4.75 8.269531 -5.003906 8.875 -5.515625 C 9.488281 -6.023438 9.796875 -6.742188 9.796875 -7.671875 C 9.796875 -8.617188 9.488281 -9.34375 8.875 -9.84375 C 8.269531 -10.351562 7.390625 -10.609375 6.234375 -10.609375 L 3.140625 -10.609375 L 3.140625 -4.75 Z M 6.234375 -4.75 "/></g></g></g><g fill="#685944" fill-opacity="1"><g transform="translate(258.882467, 323.43074)"><g><path d="M 4.171875 -10.609375 L 0.0625 -10.609375 L 0.0625 -11.671875 L 9.5 -11.671875 L 9.5 -10.609375 L 5.40625 -10.609375 L 5.40625 0 L 4.171875 0 Z M 4.171875 -10.609375 "/></g></g></g><g fill="#685944" fill-opacity="1"><g transform="translate(281.793678, 323.43074)"><g><path d="M 10.15625 -1.0625 L 10.15625 0 L 1.90625 0 L 1.90625 -11.671875 L 9.90625 -11.671875 L 9.90625 -10.609375 L 3.140625 -10.609375 L 3.140625 -6.453125 L 9.171875 -6.453125 L 9.171875 -5.40625 L 3.140625 -5.40625 L 3.140625 -1.0625 Z M 10.15625 -1.0625 "/></g></g></g><g fill="#685944" fill-opacity="1"><g transform="translate(306.288165, 323.43074)"><g><path d="M 11.65625 -11.671875 L 11.65625 0 L 10.640625 0 L 3.140625 -9.46875 L 3.140625 0 L 1.90625 0 L 1.90625 -11.671875 L 2.921875 -11.671875 L 10.4375 -2.203125 L 10.4375 -11.671875 Z M 11.65625 -11.671875 "/></g></g></g></g><g clip-path="url(#70f9ff6146)"><path fill="#685944" d="M 245.894531 220.027344 L 126.910156 220.027344 L 126.910156 151.28125 L 135.378906 151.28125 L 135.378906 211.542969 L 237.425781 211.542969 L 237.425781 124.914062 L 261.113281 101.195312 L 267.085938 107.179688 L 245.894531 128.429688 Z M 245.894531 220.027344 " fill-opacity="1" fill-rule="nonzero"/></g><g clip-path="url(#823ac286a8)"><path fill="#685944" d="M 114.242188 171.554688 L 108.707031 165.152344 L 186.414062 97.730469 L 244.464844 148.105469 L 238.910156 154.507812 L 186.414062 108.957031 Z M 114.242188 171.554688 " fill-opacity="1" fill-rule="nonzero"/></g><path fill="#685944" d="M 168.433594 94.1875 L 194.730469 71.371094 L 200.273438 77.789062 L 173.980469 100.601562 Z M 168.433594 94.1875 " fill-opacity="1" fill-rule="nonzero"/><path fill="#80c369" d="M 256.300781 89.894531 C 256.429688 98.382812 249.226562 105.382812 249.226562 105.382812 C 249.226562 105.382812 241.824219 98.601562 241.695312 90.113281 C 241.570312 81.625 248.773438 74.628906 248.773438 74.628906 C 248.773438 74.628906 256.175781 81.410156 256.300781 89.894531 Z M 256.300781 89.894531 " fill-opacity="1" fill-rule="nonzero"/><path fill="#80c369" d="M 153.476562 89.097656 C 145.277344 86.957031 140.464844 78.144531 140.464844 78.144531 C 140.464844 78.144531 148.953125 72.796875 157.148438 74.933594 C 165.347656 77.074219 170.160156 85.886719 170.160156 85.886719 C 170.160156 85.886719 161.675781 91.238281 153.476562 89.097656 Z M 153.476562 89.097656 " fill-opacity="1" fill-rule="nonzero"/><g clip-path="url(#3ad761458c)"><path fill="#80c369" d="M 267.902344 124.929688 C 276.242188 126.402344 281.746094 134.796875 281.746094 134.796875 C 281.746094 134.796875 273.710938 140.816406 265.367188 139.347656 C 257.023438 137.878906 251.523438 129.484375 251.523438 129.484375 C 251.523438 129.484375 259.558594 123.460938 267.902344 124.929688 Z M 267.902344 124.929688 " fill-opacity="1" fill-rule="nonzero"/></g><g clip-path="url(#20d5f290cd)"><path fill="#685944" d="M 245.894531 126.671875 L 237.425781 126.671875 L 237.425781 114.832031 L 166.742188 53.480469 L 172.277344 47.0625 L 245.894531 110.949219 Z M 245.894531 126.671875 " fill-opacity="1" fill-rule="nonzero"/></g><path fill="#685944" d="M 214.800781 61.625 L 223.210938 60.613281 L 227.511719 96.460938 L 219.105469 97.472656 Z M 214.800781 61.625 " fill-opacity="1" fill-rule="nonzero"/><path fill="#80c369" d="M 173.671875 144.789062 L 184.097656 144.789062 L 184.097656 155.234375 L 173.671875 155.234375 Z M 173.671875 144.789062 " fill-opacity="1" fill-rule="nonzero"/><path fill="#80c369" d="M 188.710938 144.789062 L 199.132812 144.789062 L 199.132812 155.234375 L 188.710938 155.234375 Z M 188.710938 144.789062 " fill-opacity="1" fill-rule="nonzero"/><path fill="#80c369" d="M 173.671875 159.859375 L 184.097656 159.859375 L 184.097656 170.304688 L 173.671875 170.304688 Z M 173.671875 159.859375 " fill-opacity="1" fill-rule="nonzero"/><path fill="#80c369" d="M 188.710938 159.859375 L 199.132812 159.859375 L 199.132812 170.304688 L 188.710938 170.304688 Z M 188.710938 159.859375 " fill-opacity="1" fill-rule="nonzero"/><g clip-path="url(#ab13bc49fa)"><path fill="#685944" d="M 111.472656 211.542969 L 261.332031 211.542969 L 261.332031 220.027344 L 111.472656 220.027344 Z M 111.472656 211.542969 " fill-opacity="1" fill-rule="nonzero"/></g></svg>
